<svg height="160" width="160" xmlns="http://www.w3.org/2000/svg"><linearGradient id="a" gradientUnits="userSpaceOnUse" x1="32.64" x2="82.77" y1="61.16" y2="85.54"><stop offset=".21" stop-color="#fe2857"/><stop offset="1" stop-color="#293896"/></linearGradient><linearGradient id="b" gradientUnits="userSpaceOnUse" x1="17.38" x2="82.95" y1="69.86" y2="21.23"><stop offset="0" stop-color="#fe2857"/><stop offset=".01" stop-color="#fe2857"/><stop offset=".86" stop-color="#ff318c"/></linearGradient><linearGradient id="c" gradientUnits="userSpaceOnUse" x1="74.17" x2="160.27" y1="21.58" y2="99.76"><stop offset=".02" stop-color="#ff318c"/><stop offset=".21" stop-color="#fe2857"/><stop offset=".86" stop-color="#fdb60d"/></linearGradient><linearGradient id="d" gradientUnits="userSpaceOnUse" x1="155.46" x2="55.07" y1="89.8" y2="158.9"><stop offset=".01" stop-color="#fdb60d"/><stop offset=".86" stop-color="#fcf84a"/></linearGradient><path d="m81.56 83.71-41.35-35a15 15 0 1 0-14.47 25.7h.15l.39.12 52.16 15.89a3.53 3.53 0 0 0 1.18.21 3.73 3.73 0 0 0 1.93-6.91z" fill="url(#a)" style="fill:url(#a)" transform="matrix(.93385 0 0 .93322 -4.553 -3.974)"/><path d="M89.85 25.93A10.89 10.89 0 0 0 73 16.75L22.5 47.41a15 15 0 1 0 17.9 24l45.27-36.89.36-.3a10.93 10.93 0 0 0 3.82-8.29z" fill="url(#b)" style="fill:url(#b)" transform="matrix(.93385 0 0 .93322 -4.553 -3.974)"/><path d="M163.29 92 86.67 18.21a10.91 10.91 0 1 0-14.81 16l.14.12 81.4 68.58a7.36 7.36 0 0 0 12.09-5.65 7.39 7.39 0 0 0-2.2-5.26z" fill="url(#c)" style="fill:url(#c)" transform="matrix(.93385 0 0 .93322 -4.553 -3.974)"/><path d="M165.5 97.29a7.35 7.35 0 0 0-11.67-6l-92.71 45.3a15 15 0 1 0 15.48 25.59l85.73-58.84a7.35 7.35 0 0 0 3.17-6.05z" fill="url(#d)" style="fill:url(#d)" transform="matrix(.93385 0 0 .93322 -4.553 -3.974)"/><path d="M51.478 52.019h56.032v55.993H51.478Z"/><g fill="#fff"><path d="M57.576 97.513h21.012v3.5H57.576zM56.699 66.456l1.56-1.475a1.756 1.754 0 0 0 1.372.812c.598 0 .99-.42.99-1.232v-5.524h2.41v5.543a3.212 3.21 0 0 1-.86 2.454 3.287 3.285 0 0 1-2.4.933 3.586 3.584 0 0 1-3.072-1.511zM64.113 59.037h7.032v2.043h-4.669v1.335h4.193v1.866h-4.156v1.39h4.67v2.054h-7.098zM74.573 61.155h-2.615v-2.118h7.667v2.118H77v6.616h-2.428zM57.67 71.224h4.127A3.24 3.238 0 0 1 64.18 72a1.952 1.95 0 0 1 .57 1.418 2.036 2.034 0 0 1-1.355 1.95 2.12 2.118 0 0 1 1.737 2.138c0 1.577-1.223 2.51-3.315 2.51H57.67zm4.67 2.697c0-.485-.393-.746-1.103-.746h-1.204v1.53H61.2c.728 0 1.158-.252 1.158-.756zm-.841 2.483h-1.466v1.614h1.512c.747 0 1.158-.29 1.158-.802-.018-.495-.373-.812-1.186-.812zM65.906 71.224h3.876a3.866 3.864 0 0 1 2.848.934 2.727 2.725 0 0 1 .775 2.034 2.802 2.8 0 0 1-1.802 2.697l2.092 3.126h-2.802l-1.765-2.65h-.812v2.65h-2.428zm3.736 4.2c.812 0 1.307-.401 1.307-1.045 0-.7-.513-1.055-1.316-1.055h-1.299v2.119z"/><path d="M76.776 71.159h2.335l3.736 8.81H80.24l-.626-1.578h-3.39l-.625 1.624h-2.53zm2.13 5.347-.98-2.473-.99 2.473zM83.23 71.196h2.427v8.745H83.23ZM86.554 71.196h2.279l3.147 4.666v-4.666h2.4v8.745h-2.12l-3.297-4.797v4.797h-2.41zM94.781 78.643l1.345-1.614a4.539 4.535 0 0 0 2.801 1.055c.663 0 1.009-.234 1.009-.607 0-.383-.28-.57-1.485-.85-1.868-.429-3.296-.933-3.296-2.734 0-1.623 1.288-2.8 3.39-2.8a5.491 5.487 0 0 1 3.595 1.167l-1.167 1.661a4.258 4.255 0 0 0-2.447-.858c-.588 0-.878.233-.878.56 0 .401.299.578 1.522.849 2.008.439 3.25 1.092 3.25 2.725 0 1.782-1.41 2.8-3.53 2.8a6.126 6.122 0 0 1-4.109-1.354z"/></g></svg>