<svg width="220" height="120" fill="none" xmlns="http://www.w3.org/2000/svg"><g fill="#5528ff"><path d="M102.541 36.66c-13.52 0-24.475 10.895-24.475 24.34S89.02 85.34 102.54 85.34c13.52 0 24.475-10.895 24.475-24.34s-10.955-24.34-24.475-24.34zm0 39.408c-8.368 0-15.152-6.746-15.152-15.068s6.784-15.068 15.152-15.068c8.368 0 15.152 6.746 15.152 15.068s-6.784 15.068-15.152 15.068zM157.864 66.24c6.36-1.74 11.042-7.535 11.088-14.397v-.232c-.07-8.276-6.825-14.952-15.142-14.952h-19.8v8.763l7.454 12.078h-7.43v27.84h9.317V66.773h3.914l11.454 18.569h10.955zm-4.03-8.717h-1.375l-7.198-11.591h8.573c3.215 0 5.823 2.596 5.823 5.795 0 3.2-2.608 5.796-5.823 5.796zM185.525 85.34h-10.49l12.308-24.317-12.308-24.364h10.49l7.016 14.002 7.203-14.002H210ZM34.476 36.66C20.956 36.66 10 47.554 10 61s10.956 24.34 24.476 24.34S58.95 74.446 58.95 61 47.995 36.66 34.476 36.66zM34.476 10 58.95 22.055v10.431L34.476 20.432 10 32.486V22.055ZM34.476 112 10 99.945V89.514l24.476 12.054L58.95 89.514v10.431Z"/></g></svg>