<svg xmlns="http://www.w3.org/2000/svg" xml:space="preserve" id="Layer_1" width="160" height="160" x="0" y="0" version="1.1">
<style type="text/css">
#logo-light{fill:#632CA6;}
#logo-dark{fill: #FFF; display: none;}
#text{fill-rule:evenodd;clip-rule:evenodd;fill:#632CA6;}
@media (prefers-color-scheme: dark) {
    #logo-light{display:none;}
    #logo-dark{display: block;}
    #text{fill-rule:evenodd;clip-rule:evenodd;fill:#FFF;}
}
</style>
<path id="logo-light" d="m600.37 450.73-52.78-34.82-44.03 73.55-51.21-14.97-45.09 68.82 2.31 21.66 245.17-45.18L640.5 366.6Zm-228.63-66.04 39.34-5.41c6.36 2.86 10.79 3.95 18.42 5.89 11.89 3.09 25.64 6.06 46.01-4.2 4.74-2.35 14.62-11.38 18.61-16.53l161.16-29.23 16.44 198.98-276.11 49.76zm299.36-71.7-15.91 3.03L624.63.26 103.88 60.64l64.16 520.62 60.96-8.85c-4.87-6.95-12.45-15.36-25.39-26.12-17.95-14.91-11.61-40.25-1.01-56.25 14.01-27.03 86.2-61.38 82.11-104.58-1.47-15.71-3.96-36.15-18.55-50.17-.55 5.82.44 11.41.44 11.41s-5.99-7.64-8.97-18.05c-2.96-4-5.29-5.27-8.44-10.61-2.25 6.17-1.95 13.33-1.95 13.33s-4.9-11.57-5.69-21.34c-2.9 4.37-3.63 12.67-3.63 12.67s-6.36-18.24-4.91-28.07c-2.9-8.55-11.51-25.52-9.08-64.08 15.89 11.13 50.88 8.49 64.51-11.6 4.52-6.66 7.63-24.82-2.26-60.62-6.35-22.95-22.07-57.13-28.2-70.1l-.73.53c3.23 10.45 9.89 32.34 12.45 42.97 7.74 32.2 9.81 43.42 6.18 58.27-3.09 12.91-10.5 21.35-29.28 30.79-18.78 9.47-43.71-13.58-45.28-14.85-18.25-14.54-32.37-38.25-33.94-49.78-1.64-12.61 7.27-20.18 11.76-30.49-6.43 1.83-13.59 5.1-13.59 5.1s8.55-8.85 19.09-16.5c4.37-2.89 6.93-4.73 11.53-8.55-6.66-.11-12.07.08-12.07.08s11.11-6 22.62-10.37c-8.42-.37-16.49-.06-16.49-.06s24.79-11.09 44.36-19.22c13.46-5.52 26.61-3.89 34 6.8 9.7 14 19.89 21.6 41.48 26.31 13.26-5.88 17.28-8.89 33.94-13.44 14.66-16.13 26.17-18.21 26.17-18.21s-5.71 5.24-7.24 13.47c8.31-6.55 17.42-12.02 17.42-12.02s-3.53 4.35-6.82 11.27l.76 1.14c9.7-5.82 21.1-10.4 21.1-10.4s-3.26 4.12-7.08 9.45c7.32-.06 22.15.31 27.91.96 33.99.75 41.04-36.29 54.08-40.94 16.33-5.83 23.63-9.36 51.46 17.98C545.64 92 564.3 134 555.03 143.41c-7.77 7.81-23.09-3.05-40.07-24.21-8.97-11.21-15.76-24.46-18.94-41.3-2.68-14.21-13.12-22.45-13.12-22.45s6.05 13.5 6.05 25.39c0 6.5.81 30.79 11.23 44.43-1.03 1.99-1.51 9.86-2.65 11.37-12.12-14.65-38.15-25.13-42.4-28.22 14.37 11.77 47.39 38.81 60.07 64.74 12 24.51 4.93 46.98 11 52.79 1.73 1.66 25.8 31.66 30.43 46.73 8.08 26.26.48 53.87-10.09 70.99l-29.53 4.6c-4.32-1.2-7.23-1.8-11.1-4.04 2.14-3.78 6.38-13.2 6.42-15.15l-1.67-2.92c-9.19 13.02-24.58 25.66-37.37 32.92-16.74 9.49-36.03 8.02-48.59 4.14-35.64-10.99-69.35-35.08-77.48-41.41 0 0-.25 5.05 1.28 6.19 8.98 10.14 29.57 28.47 49.48 41.26l-42.43 4.67 20.06 156.17c-8.89 1.27-10.28 1.9-20.01 3.28-8.58-30.31-24.99-50.1-42.93-61.63-15.82-10.17-37.64-12.46-58.52-8.32l-1.34 1.56c14.52-1.51 31.66.59 49.27 11.74 17.28 10.93 31.21 39.16 36.34 56.15 6.57 21.72 11.11 44.96-6.57 69.59-12.57 17.51-49.27 27.18-78.93 6.25 7.92 12.74 18.62 23.15 33.04 25.11 21.4 2.91 41.71-.81 55.69-15.16 11.93-12.27 18.27-37.93 16.6-64.95l18.89-2.74 6.82 48.5 312.65-37.65zM480.88 181.28c-.87 1.99-2.25 3.3-.19 9.78l.12.37.33.84.86 1.94c3.71 7.59 7.78 14.74 14.6 18.4 1.76-.3 3.59-.5 5.48-.59 6.4-.28 10.44.73 12.99 2.11.23-1.28.28-3.14.14-5.89-.5-9.61 1.9-25.95-16.57-34.55-6.97-3.23-16.75-2.24-20.01 1.8.59.08 1.12.2 1.54.34 4.94 1.71 1.6 3.41.71 5.45m51.78 89.66c-2.42-1.34-13.74-.81-21.7.14-15.16 1.79-31.53 7.04-35.11 9.84-6.52 5.04-3.56 13.82 1.26 17.43 13.51 10.09 25.35 16.86 37.84 15.21 7.67-1.01 14.44-13.16 19.23-24.18 3.28-7.59 3.28-15.78-1.52-18.44m-134.21-77.77c4.27-4.06-21.29-9.39-41.13 4.14-14.63 9.98-15.1 31.38-1.09 43.51 1.4 1.2 2.56 2.05 3.63 2.75 4.09-1.93 8.75-3.87 14.12-5.61 9.06-2.94 16.6-4.46 22.79-5.27 2.96-3.31 6.41-9.14 5.55-19.7-1.18-14.33-12.02-12.06-3.87-19.82" transform="matrix(.175 0 0 .175 9.956 9.954)"/>
<path id="text" d="M52.12 799.39H.25V679.98h51.87c37.37 0 56.08 18.82 56.08 56.45 0 41.95-18.71 62.96-56.08 62.96m-29.69-19.22h26.34c24.83 0 37.23-14.58 37.23-43.76 0-24.84-12.4-37.26-37.23-37.26H22.43Zm109.01 19.22h-22.77l50.79-119.41h23.84l51.9 119.41h-23.86l-15.06-32.57h-38.33l7.62-19.19h24.86l-19.59-44.86zm91.22-119.41h90.8v19.2h-34.31v100.21h-22.17V699.18h-34.33zm102.2 119.41h-22.77l50.8-119.41h23.84l51.89 119.41h-23.86l-15.06-32.57h-38.33l7.6-19.19h24.86l-19.59-44.86zm170.34 0h-51.87V679.98h51.87c37.39 0 56.08 18.82 56.08 56.45 0 41.95-18.69 62.96-56.08 62.96m-29.7-19.22h26.36c24.81 0 37.24-14.58 37.24-43.76 0-24.84-12.43-37.26-37.24-37.26H465.5Zm100.79-40.32c0-40.49 20.05-60.73 60.1-60.73 39.44 0 59.15 20.24 59.15 60.73 0 40.25-19.71 60.4-59.15 60.4-38.28-.01-58.29-20.15-60.1-60.4m60.1 41.15c24.09 0 36.14-13.88 36.14-41.66 0-27.35-12.05-41.04-36.14-41.04-24.72 0-37.07 13.69-37.07 41.04.01 27.78 12.36 41.66 37.07 41.66m151.68-29.93v27.95c-5.12 1.34-9.71 1.99-13.72 1.99-27.13 0-40.67-14.33-40.67-43 0-26.47 14.38-39.7 43.09-39.7 12 0 23.15 2.23 33.47 6.69v-20.05c-10.31-3.89-22.02-5.85-35.14-5.85-42.95 0-64.44 19.62-64.44 58.9 0 41.46 21.12 62.23 63.35 62.23 14.53 0 26.6-2.12 36.24-6.36V731.4h-35.81l-7.49 19.65h21.12z" transform="matrix(.175 0 0 .175 9.956 9.954)"/>
<path id="logo-dark" d="M68.388 39.788c3.816-2.602 8.734-1.578 7.91-.796-1.57 1.494.52 1.052.745 3.81.166 2.03-.499 3.15-1.067 3.786-1.19.156-2.64.448-4.382 1.014-1.031.334-1.93.707-2.714 1.081a6.656 6.656 0 0 1-.7-.53c-2.695-2.331-2.606-6.447.208-8.365m22.797 16.077c.691-.535 3.84-1.547 6.753-1.893 1.53-.182 3.71-.284 4.175-.023.924.51.924 2.088.293 3.545-.92 2.12-2.225 4.457-3.698 4.65-2.405.317-4.681-.984-7.28-2.924-.927-.697-1.496-2.385-.243-3.355m4.387-20.62c3.552 1.654 3.087 4.799 3.185 6.645.028.53.017.887-.028 1.136-.494-.268-1.269-.462-2.5-.408a9.14 9.14 0 0 0-1.05.112c-1.312-.702-2.094-2.077-2.811-3.539a5.63 5.63 0 0 1-.163-.372l-.063-.16-.025-.073c-.393-1.248-.129-1.498.037-1.883.172-.392.812-.718-.135-1.045a1.751 1.751 0 0 0-.297-.068c.626-.777 2.508-.968 3.85-.345M76.208 72.843c-3.827-2.458-7.787-5.981-9.518-7.93-.29-.22-.243-1.19-.243-1.19 1.563 1.216 8.046 5.846 14.9 7.96 2.416.747 6.128 1.029 9.346-.796 2.46-1.395 5.42-3.826 7.187-6.33l.324.562c-.012.373-.826 2.186-1.237 2.915.747.43 1.305.546 2.136.776l5.677-.886c2.037-3.29 3.497-8.597 1.941-13.65-.889-2.898-5.521-8.667-5.854-8.984-1.165-1.118.196-5.44-2.112-10.153-2.44-4.986-8.792-10.185-11.55-12.448.814.595 5.82 2.611 8.153 5.429.22-.293.31-1.805.511-2.186-2.002-2.623-2.16-7.296-2.16-8.544 0-2.288-1.165-4.884-1.165-4.884s2.006 1.588 2.524 4.32c.612 3.238 1.918 5.786 3.643 7.942 3.266 4.069 6.215 6.157 7.707 4.652 1.783-1.806-1.807-9.886-6.4-14.395-5.356-5.257-6.76-4.58-9.9-3.457-2.508.893-3.865 8.015-10.4 7.875-1.109-.128-3.961-.2-5.37-.187.735-1.026 1.363-1.82 1.363-1.82s-2.192.88-4.06 2l-.143-.217c.63-1.33 1.309-2.168 1.309-2.168s-1.752 1.052-3.351 2.312c.292-1.586 1.391-2.59 1.391-2.59s-2.214.4-5.035 3.5c-3.204.875-3.976 1.452-6.529 2.583-4.15-.905-6.113-2.368-7.976-5.058-1.423-2.054-3.95-2.368-6.538-1.305-3.766 1.56-8.535 3.694-8.535 3.694s1.55-.06 3.171.012c-2.215.84-4.349 1.995-4.349 1.995s1.04-.035 2.32-.014a21.61 21.61 0 0 1-2.215 1.643c-2.028 1.472-3.671 3.171-3.671 3.171s1.377-.626 2.611-.978c-.863 1.981-2.576 3.437-2.261 5.862.301 2.216 3.02 6.775 6.53 9.573.3.245 5.095 4.676 8.707 2.856 3.614-1.818 5.036-3.437 5.631-5.924.699-2.854.3-5.008-1.19-11.201-.49-2.044-1.772-6.253-2.39-8.266l.138-.1c1.183 2.494 4.207 9.067 5.425 13.48 1.902 6.885 1.307 10.378.438 11.657-2.624 3.862-9.35 4.372-12.411 2.231-.467 7.413 1.188 10.675 1.748 12.32-.28 1.89.947 5.399.947 5.399s.138-1.596.698-2.436c.15 1.876 1.096 4.104 1.096 4.104s-.058-1.376.372-2.564c.606 1.025 1.05 1.269 1.624 2.04.573 2.006 1.722 3.469 1.722 3.469s-.187-1.075-.084-2.195c2.805 2.695 3.288 6.628 3.568 9.646.786 8.31-13.098 14.912-15.788 20.107-2.04 3.077-3.26 7.947.193 10.817 8.349 6.932 5.143 8.84 9.322 11.887 5.731 4.18 12.906 2.307 15.349-1.091 3.4-4.738 2.525-9.205 1.262-13.383-.986-3.268-3.668-8.697-6.988-10.797-3.39-2.147-6.687-2.551-9.48-2.26l.26-.297c4.017-.798 8.215-.358 11.255 1.598 3.45 2.217 6.605 6.022 8.257 11.851 1.87-.266 2.136-.389 3.848-.63l-3.857-30.03zm2.228 37.642-.446-4.163 8.675-13.232 9.847 2.88 8.47-14.146 10.153 6.696 7.712-16.175 2.742 29.457zm47.26-44.18-31 5.62c-.766.992-2.666 2.728-3.578 3.181-3.914 1.97-6.562 1.402-8.846.807-1.47-.373-2.322-.583-3.544-1.133l-7.567 1.04 4.592 38.317 53.102-9.572z"/>
</svg>
